<?xml version="1.0" encoding="UTF-8"?>
<svg width="99px" height="76px" viewBox="0 0 99 76" version="1.1" xmlns="http://www.w3.org/2000/svg" xmlns:xlink="http://www.w3.org/1999/xlink">
    <!-- Generator: Sketch 40.1 (33804) - http://www.bohemiancoding.com/sketch -->
    <title>Page 1</title>
    <desc>Created with Sketch.</desc>
    <defs>
        <polygon id="path-1" points="0.043166129 9.17107843 98.7296661 9.17107843 98.7296661 0.531059389 0.043166129 0.531059389 0.043166129 9.17107843"></polygon>
    </defs>
    <g id="Layouts" stroke="none" stroke-width="1" fill="none" fill-rule="evenodd">
        <g id="Homepage" transform="translate(-163.000000, -220.000000)">
            <g id="Page-1" transform="translate(163.000000, 220.000000)">
                <g id="Group-6" transform="translate(0.000000, 0.313975)">
                    <g id="Group-3" transform="translate(0.000000, 66.355450)">
                        <mask id="mask-2" fill="white">
                            <use xlink:href="#path-1"></use>
                        </mask>
                        <g id="Clip-2"></g>
                        <path d="M5.56534355,2.08259007 L5.56534355,0.60280959 L0.043166129,0.60280959 L0.043166129,9.09954402 L1.67985968,9.09954402 L1.67985968,5.65067905 L4.98837581,5.65067905 L4.98837581,4.17089857 L1.67985968,4.17089857 L1.67985968,2.08259007 L5.56534355,2.08259007 Z M19.3641339,9.09954402 L19.3641339,7.61976354 L15.4791823,7.61976354 L15.4791823,5.55519194 L18.7871661,5.55519194 L18.7871661,4.07541146 L15.4791823,4.07541146 L15.4791823,2.08259007 L19.3641339,2.08259007 L19.3641339,0.60280959 L13.8424887,0.60280959 L13.8424887,9.09954402 L19.3641339,9.09954402 Z M33.2342468,6.59368171 C33.2342468,5.84165327 33.0335855,5.22125679 32.5864887,4.79129506 C32.2330694,4.45735991 31.7503113,4.24264878 30.9849242,4.13529321 L29.9959887,3.99179281 C29.6548113,3.94431899 29.3838919,3.81322652 29.2188919,3.65785766 C29.0427145,3.49062034 28.9719242,3.26404076 28.9719242,3.04932963 C28.9719242,2.46453851 29.3956016,1.9752345 30.2669081,1.9752345 C30.8204565,1.9752345 31.4559726,2.04698471 31.9861016,2.56002562 L33.0218758,1.52153586 C32.3038597,0.817520721 31.4676823,0.531059389 30.314279,0.531059389 C28.5008758,0.531059389 27.3943113,1.59328606 27.3943113,3.1086719 C27.3943113,3.82455549 27.5944403,4.37374125 27.9946984,4.7794266 C28.3715371,5.14950659 28.9011339,5.3755467 29.61915,5.48344174 L30.6320371,5.62694214 C31.0205855,5.68628442 31.2090048,5.76990307 31.3734726,5.92527193 C31.5501823,6.09250924 31.6326823,6.34228626 31.6326823,6.64115552 C31.6326823,7.32143375 31.1147952,7.69097427 30.149279,7.69097427 C29.3721823,7.69097427 28.6541661,7.51240797 28.1240371,6.97563015 L27.0643113,8.0491858 C27.888779,8.89670134 28.8542952,9.17129422 30.1258597,9.17129422 C31.8801823,9.17129422 33.2342468,8.24016002 33.2342468,6.59368171 L33.2342468,6.59368171 Z M47.0213274,2.08259007 L47.0213274,0.60280959 L41.0046823,0.60280959 L41.0046823,2.08259007 L43.1943919,2.08259007 L43.1943919,9.09954402 L44.8310855,9.09954402 L44.8310855,2.08259007 L47.0213274,2.08259007 Z M55.2037306,9.09954402 L56.8404242,9.09954402 L56.8404242,0.60280959 L55.2037306,0.60280959 L55.2037306,9.09954402 Z M71.4753919,0.60280959 L69.7684403,0.60280959 L68.0843758,6.13998306 L66.4008435,0.60280959 L64.7056016,0.60280959 L67.472279,9.09954402 L68.6964726,9.09954402 L71.4753919,0.60280959 Z M85.4013919,9.09954402 L82.3409081,0.60280959 L81.0576339,0.60280959 L78.0077952,9.09954402 L79.715279,9.09954402 L80.2214565,7.59602663 L83.2005048,7.59602663 L83.6949726,9.09954402 L85.4013919,9.09954402 Z M82.7645855,6.19986481 L80.6807952,6.19986481 L81.7399887,3.1086719 L82.7645855,6.19986481 Z M98.7296661,9.09954402 L98.7296661,7.61976354 L94.9272145,7.61976354 L94.9272145,0.60280959 L93.290521,0.60280959 L93.290521,9.09954402 L98.7296661,9.09954402 Z" id="Fill-1" fill="#000000" mask="url(#mask-2)"></path>
                    </g>
                    <path d="M13.6832903,13.8387797 C13.6832903,11.2876015 12.2265,10.079177 11.0869355,9.54239921 C12.0407419,9.08546371 13.4182258,7.71627565 13.4182258,5.59559863 C13.4182258,2.31990521 11.2726935,0.225662477 7.59053226,0.225662477 L0.0138387097,0.225662477 L0.0138387097,19.3425057 L7.90829032,19.3425057 C11.2726935,19.3425057 13.6832903,17.4095661 13.6832903,13.8387797 L13.6832903,13.8387797 Z M9.73606452,5.75690172 C9.73606452,7.07268174 8.86209677,7.95850002 7.29885484,7.95850002 L3.696,7.95850002 L3.696,3.55476395 L7.29885484,3.55476395 C8.86209677,3.55476395 9.73606452,4.44058223 9.73606452,5.75690172 L9.73606452,5.75690172 Z M10.001129,13.6505029 C10.001129,14.9398486 9.20646774,16.0134043 7.53730645,16.0134043 L3.696,16.0134043 L3.696,11.3140358 L7.53730645,11.3140358 C9.20646774,11.3140358 10.001129,12.3622361 10.001129,13.6505029 L10.001129,13.6505029 Z M43.8037742,19.3425057 L36.9158226,0.225662477 L34.0283226,0.225662477 L27.1669839,19.3425057 L31.0082903,19.3425057 L32.1473226,15.9599962 L38.8500484,15.9599962 L39.9624677,19.3425057 L43.8037742,19.3425057 Z M37.869629,12.8180926 L33.1804355,12.8180926 L35.5649516,5.86425728 L37.869629,12.8180926 Z M70.0563387,3.55476395 L70.0563387,0.225662477 L56.5188871,0.225662477 L56.5188871,3.55476395 L61.4465323,3.55476395 L61.4465323,19.3425057 L65.1286935,19.3425057 L65.1286935,3.55476395 L70.0563387,3.55476395 Z M98.7205645,19.3425057 L98.7205645,0.225662477 L95.0373387,0.225662477 L95.0373387,8.03888182 L88.6529032,8.03888182 L88.6529032,0.225662477 L84.9712742,0.225662477 L84.9712742,19.3425057 L88.6529032,19.3425057 L88.6529032,11.3410095 L95.0373387,11.3410095 L95.0373387,19.3425057 L98.7205645,19.3425057 Z" id="Fill-4" fill="#000000"></path>
                </g>
                <polygon id="Fill-7" fill="#000000" points="0.000479032258 33.7986609 0.000479032258 52.9743069 3.69275323 52.9743069 3.69275323 45.1907587 11.1592694 45.1907587 11.1592694 41.8514072 3.69275323 41.8514072 3.69275323 37.1385518 12.4617048 37.1385518 12.4617048 33.7986609"></polygon>
                <polygon id="Fill-8" fill="#000000" points="29.9490968 52.9737674 33.6424355 52.9737674 33.6424355 33.7992003 29.9490968 33.7992003"></polygon>
                <polygon id="Fill-9" fill="#000000" points="64.5919113 52.9739293 64.5919113 49.6345778 56.0097823 49.6345778 56.0097823 33.7988227 52.3164435 33.7988227 52.3164435 52.9739293"></polygon>
                <polygon id="Fill-10" fill="#000000" points="95.084071 33.7986609 90.1686677 44.1673742 85.2266516 33.7986609 81.5865387 33.7986609 81.5865387 52.9743069 85.2793452 52.9743069 85.2793452 41.7974597 88.9205226 49.0690459 91.4173452 49.0690459 95.0308452 41.7974597 95.0308452 52.9743069 98.7247161 52.9743069 98.7247161 33.7986609"></polygon>
            </g>
        </g>
    </g>
</svg>