<?xml version="1.0" encoding="UTF-8" standalone="no"?>
<svg width="49px" height="14px" viewBox="0 0 49 14" version="1.1" xmlns="http://www.w3.org/2000/svg" xmlns:xlink="http://www.w3.org/1999/xlink">
    <!-- Generator: Sketch 39 (31667) - http://www.bohemiancoding.com/sketch -->
    <title>LOGO</title>
    <desc>Created with Sketch.</desc>
    <defs></defs>
    <g id="Page-7" stroke="none" stroke-width="1" fill="none" fill-rule="evenodd">
        <g id="F-Rated-website---wireframes-Museo-and-driod" transform="translate(-200.000000, -36.000000)" fill="#1D1D1B">
            <g id="Group-1035" transform="translate(200.000000, 33.990000)">
                <g id="LOGO">
                    <text id="R" font-family="LucidaGrande, Lucida Grande" font-size="10.4924" font-weight="normal">
                        <tspan x="14.0459" y="10.4997398">R</tspan>
                    </text>
                    <text id="A" font-family="LucidaGrande, Lucida Grande" font-size="10.4924" font-weight="normal">
                        <tspan x="21.3591" y="10.4997398">A</tspan>
                    </text>
                    <text id="T" font-family="LucidaGrande, Lucida Grande" font-size="10.4924" font-weight="normal">
                        <tspan x="27.5181" y="10.4997398">T</tspan>
                    </text>
                    <text id="E" font-family="LucidaGrande, Lucida Grande" font-size="10.4924" font-weight="normal">
                        <tspan x="34.548" y="10.4997398">E</tspan>
                    </text>
                    <text id="D" font-family="LucidaGrande, Lucida Grande" font-size="10.4924" font-weight="normal">
                        <tspan x="41.1373" y="10.4997398">D</tspan>
                    </text>
                    <polygon id="Fill-1033" points="0.3811 11.985 1.1841 11.829 1.1841 6.411 0.3811 6.256 0.3811 5.343 6.3901 5.343 6.3901 7.412 5.2291 7.412 5.1621 6.51 2.6981 6.51 2.6981 8.589 5.3431 8.589 5.3431 9.755 2.6981 9.755 2.6981 11.829 3.5081 11.985 3.5081 12.892 0.3811 12.892"></polygon>
                    <polygon id="Fill-1034" points="10.001 15.183 10.403 15.183 10.403 2.643 10.001 2.643"></polygon>
                </g>
            </g>
        </g>
    </g>
</svg>